# xmcd
#
# Track frame offsets:
#	150
#	10316
#	21009
#	31478
#	43537
#	54809
#	66093
#	75276
#	86118
#	99412
#	114979
#	126699
#
# Disc length: 1846 seconds
#
# Revision: 0
# Processed by: cddbd v1.5.2PL0 Copyright (c) Steve Scherf et al.
# Submitted via: audiograbber 1.80.04
#
DISCID=8e07340c
DTITLE=50's Vol.2 - Colección inolvidables de cuatro decadas
DYEAR=2002
DGENRE=Top 40
TTITLE0=Neil Sdaka - Oh! Carol
TTITLE1=Brenda Lee - Sweet nothin's
TTITLE2=The Evely Brothers - All i have to do is dream
TTITLE3=Jackie Wilson - Lonely tearsdrop
TTITLE4=The Platters - Smoke gets in your eyes
TTITLE5=Sonny James - Young love
TTITLE6=Dedicate to the one i love - Dedicate to the one i love
TTITLE7=Phil Phillips - Sea of love
TTITLE8=Bobby Helms - My special angel
TTITLE9=Nat King Cole - Unforgettable
TTITLE10="Tennessee" Ernie Ford - Sixteen tons
TTITLE11=Johnnie Ray - Just walking in the rain
EXTD=PKdor
EXTT0=
EXTT1=
EXTT2=
EXTT3=
EXTT4=
EXTT5=
EXTT6=
EXTT7=
EXTT8=
EXTT9=
EXTT10=
EXTT11=
PLAYORDER=
